<?xml version="1.0" encoding="utf-8"?>
<!-- Uploaded to: SVG Repo, www.svgrepo.com, Generator: SVG Repo Mixer Tools -->
<svg width="800px" height="800px" viewBox="0 0 24 24" fill="none" xmlns="http://www.w3.org/2000/svg">
  <path d="M16 15.5C17.7848 15.5 19.2778 14.137 19.464 12.3681C19.4896 12.1245 19.4896 11.8755 19.464 11.6319C19.2778 9.86302 17.7848 8.5 16 8.5C14.2152 8.5 12.7222 9.86302 12.536 11.6319C12.5103 11.8755 12.5103 12.1245 12.536 12.3681C12.7222 14.137 14.2152 15.5 16 15.5Z" fill="#000000"/>
  <path fill-rule="evenodd" clip-rule="evenodd" d="M16.0743 18.75H8.07434C4.75284 18.75 1.92497 16.3336 1.40694 13.0527C1.29681 12.3552 1.29681 11.6448 1.40694 10.9473C1.92497 7.6664 4.75284 5.25 8.07434 5.25H16.0743C19.3958 5.25 22.2236 7.6664 22.7417 10.9473C22.8518 11.6448 22.8518 12.3552 22.7417 13.0527C22.2236 16.3336 19.3958 18.75 16.0743 18.75ZM16.0743 17.25C18.6577 17.25 20.8572 15.3706 21.2601 12.8188C21.3458 12.2763 21.3458 11.7237 21.2601 11.1812C20.8572 8.62942 18.6577 6.75 16.0743 6.75H8.07434C5.49095 6.75 3.2915 8.62942 2.88859 11.1812C2.80293 11.7237 2.80293 12.2763 2.88859 12.8188C3.2915 15.3706 5.49095 17.25 8.07434 17.25H16.0743Z" fill="#000000"/>
</svg>
